PathFileType	4	(X/Y/Z)	C:\Users\dbl\Desktop\LZH\BX\Trimmed_Trimmed_bx_y_10_901.trc
DataRate	CameraRate	NumFrames	NumMarkers	Units	OrigDataRate	OrigDataStartFrame	OrigNumFrames
50.00	50.00	       5	43	mm	50.00	1	       247
Frame#	Time	Top.Head			R.Acromium			L.Acromium			Sternum			R.ASIS			L.ASIS			V.Sacral			R.Thigh.Upper			R.Thigh.Front			R.Thigh.Rear			R.Knee.Lat			R.Knee.Med			R.Shank.Upper			R.Shank.Front			R.Shank.Rear			R.Ankle.Lat			R.Midfoot.Lat			R.Toe.Lat			R.Toe.Tip			R.Toe.Med			R.Ankle.Med			R.Midfoot.Sup			R.Heel			L.Thigh.Upper			L.Thigh.Front			L.Thigh.Rear			L.Knee.Lat			L.Knee.Med			L.Shank.Upper			L.Shank.Front			L.Shank.Rear			L.Ankle.Lat			L.Midfoot.Lat			L.Toe.Lat			L.Toe.Tip			L.Toe.Med			L.Ankle.Med			L.Midfoot.Sup			L.Heel			origin1 front left			origin2 front right			origin 3 back right			origin 4 back leftt			
		X1	Y1	Z1	X2	Y2	Z2	X3	Y3	Z3	X4	Y4	Z4	X5	Y5	Z5	X6	Y6	Z6	X7	Y7	Z7	X8	Y8	Z8	X9	Y9	Z9	X10	Y10	Z10	X11	Y11	Z11	X12	Y12	Z12	X13	Y13	Z13	X14	Y14	Z14	X15	Y15	Z15	X16	Y16	Z16	X17	Y17	Z17	X18	Y18	Z18	X19	Y19	Z19	X20	Y20	Z20	X21	Y21	Z21	X22	Y22	Z22	X23	Y23	Z23	X24	Y24	Z24	X25	Y25	Z25	X26	Y26	Z26	X27	Y27	Z27	X28	Y28	Z28	X29	Y29	Z29	X30	Y30	Z30	X31	Y31	Z31	X32	Y32	Z32	X33	Y33	Z33	X34	Y34	Z34	X35	Y35	Z35	X36	Y36	Z36	X37	Y37	Z37	X38	Y38	Z38	X39	Y39	Z39	X40	Y40	Z40	X41	Y41	Z41	X42	Y42	Z42	X43	Y43	Z43	

1	0.000	-671.48157	246.04324	1841.39404	-650.96716	54.58514	1527.28528	-666.94257	443.82401	1517.25024	-543.49072	260.88437	1403.75818	-533.98102	143.33685	1051.35083	-533.22028	387.64206	1059.50134	-727.23987	244.46358	1052.02966	-565.83691	93.22168	889.17200	-519.75671	155.08330	842.32080	-613.88391	88.81527	746.90045	-638.87891	123.22085	606.80066	-631.78650	233.78317	561.96027	-679.69183	122.21407	540.29437	-597.52081	174.91725	543.81097	-719.70081	125.58358	474.09958	-685.35156	146.75459	214.71710	-616.32660	78.52985	168.93875	-572.40790	50.27352	162.42691	-492.63855	90.11878	161.32454	-530.97632	143.75290	164.39317	-630.86969	220.68535	218.33179	-591.29193	191.74013	166.76390	-716.35944	215.32913	170.52103	-565.03412	433.32288	884.40302	-517.73602	371.88208	841.56262	-608.18048	434.30615	752.67914	-642.78137	410.94037	627.48810	-611.96356	307.37909	577.65601	-654.03906	406.83054	564.39423	-601.70325	366.10599	539.44659	-706.82263	412.49414	512.30884	-678.77106	412.71432	213.36467	-585.38806	467.32358	166.41418	-547.00928	479.09119	160.51411	-487.91077	429.85562	167.99236	-524.78973	387.56390	177.48296	-641.74445	324.46667	206.72783	-593.17780	346.29871	168.25113	-731.54395	342.06787	164.34454	-443.44647	449.20486	147.08607	-450.27805	75.26015	144.90210	-806.41992	82.61453	142.58391	-799.16370	457.46124	145.19038	
2	0.020	-671.58533	246.02074	1841.34631	-650.89374	54.56874	1527.29712	-667.05951	443.72992	1517.31409	-543.42822	260.95889	1403.78015	-533.97906	143.29204	1051.41553	-533.44025	387.70242	1059.53967	-727.26715	244.37836	1052.05115	-565.94250	93.19446	889.15198	-519.78265	155.08209	842.38855	-613.80029	88.70567	746.98840	-638.91412	123.22827	606.74036	-631.78650	233.78316	561.96027	-679.69220	122.22713	540.28259	-597.45416	174.97749	543.89630	-719.66351	125.58463	474.10895	-685.40601	146.72908	214.75357	-616.30811	78.52522	168.99696	-572.36713	50.29842	162.46220	-492.61990	90.22026	161.21646	-530.96149	143.71428	164.35898	-630.97205	220.39603	218.25232	-591.37866	191.85509	166.56044	-716.27234	215.27788	170.50168	-565.17548	433.31970	884.40820	-517.75171	371.78723	841.62286	-608.29913	434.43851	752.89691	-642.84039	410.95950	627.48364	-611.89301	307.33679	577.65161	-654.03271	406.88263	564.38538	-601.72906	366.05978	539.41766	-706.77679	412.50012	512.27124	-678.75873	412.71613	213.36372	-585.40033	467.29242	166.44720	-547.07129	479.05304	160.53198	-487.93930	429.88248	168.05661	-524.99072	387.31290	177.85193	-641.92035	324.66727	206.61729	-593.26147	346.31894	168.17073	-731.62036	342.11203	164.40227	-443.45258	449.14487	147.07768	-450.26309	75.19423	144.84845	-806.38391	82.64122	142.56650	-799.22357	457.47110	145.15747	
3	0.040	-671.67474	245.99242	1841.32153	-650.83429	54.55758	1527.29309	-667.18298	443.65778	1517.36072	-543.48108	261.01920	1403.83496	-533.98529	143.25471	1051.46204	-533.61371	387.74753	1059.55945	-727.29590	244.31082	1052.06360	-566.01068	93.17793	889.14972	-519.82452	155.08195	842.45337	-613.77478	88.63893	747.06061	-638.93982	123.22570	606.70636	-631.78650	233.78314	561.96027	-679.69226	122.23639	540.27704	-597.43347	175.03146	543.96210	-719.63794	125.56837	474.13321	-685.46039	146.69896	214.81322	-616.29749	78.52596	169.02060	-572.35156	50.29774	162.48471	-492.62036	90.27613	161.13272	-530.95660	143.69807	164.34084	-631.03992	220.20689	218.19534	-591.40503	191.88997	166.49841	-716.21246	215.24702	170.49767	-565.29236	433.33160	884.41431	-517.76154	371.72531	841.66284	-608.39819	434.52393	753.03235	-642.90210	410.99612	627.46936	-611.84442	307.30261	577.66382	-654.01868	406.93982	564.39703	-601.74426	366.04398	539.41473	-706.75165	412.50064	512.23932	-678.73865	412.72821	213.36644	-585.40735	467.27380	166.46735	-547.09637	479.03830	160.53981	-487.96555	429.89737	168.10881	-525.17352	387.11417	178.07880	-642.04486	324.81702	206.52956	-593.31720	346.32025	168.09682	-731.66736	342.15115	164.43353	-443.44284	449.09772	147.06064	-450.25516	75.15649	144.81653	-806.34747	82.64941	142.56400	-799.24512	457.48709	145.13287	
4	0.060	-671.74921	245.96188	1841.31848	-650.79895	54.56388	1527.27661	-667.30701	443.62006	1517.38293	-543.65045	261.09024	1403.89795	-533.99310	143.23024	1051.48682	-533.72534	387.78101	1059.56396	-727.32428	244.27113	1052.07104	-566.02588	93.16093	889.15833	-519.88116	155.08521	842.50525	-613.80817	88.62572	747.09827	-638.95630	123.21412	606.70734	-631.78650	233.78316	561.96027	-679.69214	122.25001	540.28369	-597.46912	175.06979	543.98590	-719.62933	125.53590	474.16360	-685.50342	146.68405	214.87811	-616.29358	78.52717	169.01483	-572.36792	50.28337	162.48875	-492.64905	90.28458	161.07785	-530.95728	143.70944	164.34087	-631.06616	220.14247	218.18564	-591.36859	191.84087	166.56616	-716.17670	215.24800	170.52263	-565.38641	433.33142	884.40607	-517.76392	371.70016	841.67841	-608.46588	434.55267	753.04333	-642.96265	411.03275	627.45624	-611.82892	307.28021	577.69250	-654.00067	406.98697	564.41931	-601.74481	366.06946	539.43634	-706.74756	412.49115	512.21344	-678.72211	412.74643	213.36490	-585.40704	467.27136	166.47148	-547.07104	479.05276	160.53519	-487.98859	429.88950	168.13821	-525.27313	386.99103	178.14996	-642.07477	324.87674	206.49423	-593.33820	346.30161	168.04755	-731.68268	342.17883	164.44376	-443.41953	449.06949	147.03046	-450.25537	75.15578	144.81413	-806.31024	82.65087	142.56670	-799.21777	457.49210	145.11975	
5	0.080	-671.82745	245.93370	1841.31750	-650.79419	54.58744	1527.26428	-667.41840	443.61719	1517.39063	-543.84747	261.20865	1403.91663	-533.98987	143.22810	1051.49841	-533.79071	387.81152	1059.56433	-727.34967	244.25517	1052.08350	-566.02185	93.14790	889.16724	-519.93817	155.09552	842.53436	-613.85834	88.64478	747.09717	-638.97009	123.20635	606.73822	-631.78644	233.78323	561.96027	-679.69250	122.27569	540.30157	-597.53534	175.08679	543.97076	-719.63995	125.51280	474.17728	-685.51154	146.69627	214.90854	-616.28992	78.52189	169.00009	-572.40173	50.28641	162.47202	-492.69714	90.26443	161.06473	-530.95038	143.73636	164.34949	-631.05365	220.18149	218.24054	-591.31885	191.77364	166.64763	-716.15271	215.28841	170.57697	-565.46063	433.29294	884.38098	-517.76050	371.69284	841.67670	-608.50659	434.55017	752.96686	-643.01532	411.04852	627.44666	-611.84174	307.27274	577.71741	-653.99316	406.98834	564.42358	-601.74127	366.11215	539.46112	-706.75995	412.47739	512.19574	-678.72980	412.76526	213.34399	-585.40527	467.27487	166.46878	-547.01617	479.08063	160.52728	-488.00473	429.86395	168.13855	-525.22687	386.96722	178.15195	-642.02448	324.85583	206.51141	-593.33698	346.27908	168.03477	-731.67957	342.19647	164.45523	-443.40292	449.05521	146.99223	-450.25848	75.17709	144.83104	-806.28003	82.66261	142.56120	-799.16388	457.47903	145.11937	
